# xmcd CD database file
#
# Track frame offsets:
#	183
#	11415
#	26963
#	43978
#	59023
#	71510
#	89493
#
# Disc length: 1365 seconds
#
# Revision: 0
# Processed by: cddbd v1.5.2PL0 Copyright (c) Steve Scherf et al.
# Submitted via: CDex 1.40Release
#
DISCID=62055307
DTITLE=The Walk Aways - The Walk Aways
DYEAR=1995
DGENRE=Country
TTITLE0=The time has come
TTITLE1=Down at the twist and shout
TTITLE2=Lovers ain't liars
TTITLE3=Eighteen wheels
TTITLE4=Dim lights
TTITLE5=Louisiana moon
TTITLE6=Full moom full of love
EXTD=YEAR: 1995 ID3G: 2
EXTT0=
EXTT1=
EXTT2=
EXTT3=
EXTT4=
EXTT5=
EXTT6=
PLAYORDER=
